<?xml version="1.0" encoding="UTF-8"?>
<svg id="king" xmlns="http://www.w3.org/2000/svg" viewBox="0 0 274.93 120.27">
  <defs>
    <style>
      .cls-1 {
        fill: #dd2641;
      }

      .cls-2 {
        fill: #ffd6c0;
      }

      .cls-3 {
        fill: #ffd45c;
      }

      .cls-4 {
        fill: #ffba5f;
      }

      .cls-5 {
        fill: #7c5949;
      }

      .cls-6 {
        fill: #51504f;
      }
    </style>
  </defs>
  <g id="Layer_6">
    <path class="cls-5" d="M52.57,92.67L101.4,25.43s5.8,5.3,4.74,9.56c0,0-41.77,56.77-47.9,63.9,0,0-.11-4.74-5.68-6.22Z"/>
  </g>
  <g id="body">
    <path class="cls-2" d="M75.15,79.7s-8.77-1.41-8.95-12.88c-.18-11.47,14.57-17,15.66-7.5,1.09,9.5,4.69,11.08,1.64,14.78l1.2,5.6h-9.55Z"/>
    <path class="cls-1" d="M100.95,120.27l11.04-23.96s-27.04,8.19-37.6-18.39c0,0,6.92,2.55,9.1-3.82,0,0,23.49,22.39,33.5,11.47l3.64-9.1,30.04-2.37s17.48,39.61,17.66,46.17h-67.39Z"/>
  </g>
  <g id="head">
    <ellipse class="cls-2" cx="132.62" cy="59.32" rx="28.26" ry="23.7"/>
  </g>
  <g id="crown">
    <path class="cls-4" d="M108.8,36.96s-4.98-19.48-2.91-25.43l12.5,10.44,8.99-15.29,10.67,16.14s5.95-11.65,6.43-14.81c0,0,6.92,3.4,7.16,12.38.24,8.98,6.31,14.75,6.31,14.75"/>
    <path class="cls-3" d="M107.89,47.33s24.03-14.75,50.07-3.46v-8.74s-39.69-2.37-49.16,1.82c0,0-2.73,6.55-.91,10.38Z"/>
    <circle class="cls-3" cx="106.62" cy="7.73" r="5.37"/>
    <circle class="cls-3" cx="128.29" cy="5.82" r="5.1"/>
    <circle class="cls-3" cx="146.04" cy="5.5" r="5.42"/>
  </g>
  <g id="face">
    <path class="cls-6" d="M117,47.33s10.83,4.64,13.66,9.19-10.56-2.73-13.66-9.19Z"/>
    <path class="cls-6" d="M132.62,55.89s5.59-9.19,14.06-11.56-11.55,14.93-14.06,11.56Z"/>
    <circle class="cls-6" cx="125.49" cy="57.65" r="2.7"/>
    <circle class="cls-6" cx="137.69" cy="56.33" r="2.99"/>
    <path class="cls-6" d="M120.64,69.82s16.57-16.75,23.21-.73c0,0-6.55-7.56-23.21.73Z"/>
  </g>
</svg>