<?xml version="1.0" encoding="UTF-8"?>
<svg id="king" xmlns="http://www.w3.org/2000/svg" viewBox="0 0 274.93 120.27">
  <defs>
    <style>
      .cls-1 {
        fill: #dd2641;
      }

      .cls-2 {
        fill: #ff7110;
      }

      .cls-3 {
        fill: #ffd6c0;
      }

      .cls-4 {
        fill: #dd3726;
      }

      .cls-5 {
        fill: #7c5949;
      }
    </style>
  </defs>
  <g id="Layer_6">
    <path class="cls-5" d="M198.46,88.19l-108.02-51.41s-4.4,10.45-.28,15.06c0,0,91.93,43.04,104.65,47.86,0,0-2.86-5.98,3.65-11.51Z"/>
  </g>
  <g id="body">
    <path class="cls-3" d="M160.02,87s10.83-7.58,3.79-21.99c-7.04-14.42-30.28-11.52-25.71,1.04,4.57,12.56.76,16.92,7.19,19.51l1.95,7.78,12.78-6.34Z"/>
    <path class="cls-1" d="M143.43,120.27s10.46-5.86,16.47-35.98c0,0-7.64,7.77-14.61,1.27,0,0-20.89,34.71-40.92,34.71"/>
  </g>
  <g id="effect">
    <polygon class="cls-4" points="84.16 21.92 99.28 9.26 107.6 28.53 97.77 14.36 84.16 21.92"/>
    <polygon class="cls-4" points="90.58 68.53 71.74 74.35 71.54 53.36 75.11 70.23 90.58 68.53"/>
    <polygon class="cls-4" points="69.32 47.58 57.17 32.06 76.71 24.38 62.22 33.73 69.32 47.58"/>
    <polygon class="cls-4" points="109.61 33.14 127.6 41.22 113.89 57.11 122.35 42.08 109.61 33.14"/>
    <polygon class="cls-2" points="93.09 60.7 80.34 64.64 80.2 50.42 82.62 61.85 93.09 60.7"/>
    <polygon class="cls-2" points="79.52 45.82 73.6 33.85 87.61 31.45 76.72 35.66 79.52 45.82"/>
    <polygon class="cls-2" points="86.65 29.1 96.65 20.25 102.63 33.14 95.72 23.73 86.65 29.1"/>
    <polygon class="cls-2" points="102.63 36.91 114.16 43.64 103.78 53.35 110.56 43.84 102.63 36.91"/>
  </g>
</svg>